<svg width="30" height="30" viewBox="0 0 30 30" xmlns="http://www.w3.org/2000/svg">
    <defs>
        <radialGradient id="rockGradient" cx="50%" cy="50%" r="50%" fx="50%" fy="50%">
            <stop offset="0%" style="stop-color:#BEBEBE;stop-opacity:1" />
            <stop offset="100%" style="stop-color:#919191;stop-opacity:1" />
        </radialGradient>
    </defs>
    <path d="M2.6,16.2c-1-2.9,0.5-6.1,3.4-7.1l5.2-1.8c1.6-0.5,3.3,0.1,4.3,1.4l3.1,3.9c1.1,1.4,0.7,3.5-0.8,4.4l-4.5,2.7c-2.7,1.6-6.1,0.5-7.5-2.2L2.6,16.2z" fill="url(#rockGradient)"/>
    <path d="M15.3,27.5c-2.9,1-6.1-0.5-7.1-3.4l-1.8-5.2c-0.5-1.6,0.1-3.3,1.4-4.3l3.9-3.1c1.4-1.1,3.5-0.7,4.4,0.8l2.7,4.5c1.6,2.7,0.5,6.1-2.2,7.5L15.3,27.5z" fill="#919191" opacity="0.7"/>
</svg> 